<?xml version="1.0" encoding="UTF-8" standalone="no"?>
<!DOCTYPE svg PUBLIC "-//W3C//DTD SVG 1.1//EN" "http://www.w3.org/Graphics/SVG/1.1/DTD/svg11.dtd">
<svg width="100%" height="100%" viewBox="0 0 943 259" version="1.1" xmlns="http://www.w3.org/2000/svg" xmlns:xlink="http://www.w3.org/1999/xlink" xml:space="preserve" xmlns:serif="http://www.serif.com/" style="fill-rule:evenodd;clip-rule:evenodd;stroke-linejoin:round;stroke-miterlimit:2;">
    <g transform="matrix(1,0,0,1,-166.193,-2437.34)">
        <g transform="matrix(0.0818532,0,0,-0.0818532,-177.999,1491.6)">
            <g transform="matrix(0.227401,0,0,0.227401,-1823.48,-22634.3)">
                <g transform="matrix(1.04958,0,0,1.04958,26331.9,35294.5)">
                    <path d="M2981.69,5313.15C2981.69,5287.15 2990.69,4846 3001.69,4640C3027.69,4145 3014,3512 3045,2715C3086,1676 3102,-56.34 3126,-243.34C3146,-400.34 3166,-447.34 3204,-432.34C3250,-414.34 3265,1247 3295,2325C3310,2860 3324,3223 3355,3925C3370,4255 3371.15,5301.3 3365.15,5306.3C3364.15,5308.3 3291.15,5314.3 3203.15,5319.3C3116.15,5324.3 3078.69,5352.15 3044.69,5356.15L2981.69,5362.15L2981.69,5313.15Z" style="fill:rgb(38,176,229);fill-rule:nonzero;"/>
                </g>
                <g transform="matrix(1.04958,0,0,1.04958,26331.9,35294.5)">
                    <path d="M3439.62,8143C3445.62,7892 3359.01,7752 3387.01,7728C3395.01,7721 3606.15,7719.31 3661.15,7701.31C3845.15,7641.31 4193.69,7495.05 4345,7388C4453.31,7311.37 4514,7178 4569,7059C4663,6858 4673,6761 4616,6597C4516,6306 4308,6126 3919,5992C3696,5915 3446,5869 3025,5825C2757,5798 2702,5790 2541,5759C2187,5692 1868,5572 1642,5420C1527,5343 1385,5210 1309,5107C1204,4966 1093,4706 1045,4490C1036,4449 1026,4358 1023,4289C1018,4182 1021,4147 1040,4059C1132,3629 1361,3342 1772,3145C2052,3011 2437,2924 2797,2913L3125.92,2865.31L3119.92,3074.31C3113.92,3311.31 3102.92,3409.31 3077.92,3453.31C3062.92,3479.31 2902,3528 2830,3548C2674,3590 2437,3671 2352,3710C2114,3822 1946,4003 1909,4188C1873,4378 1960,4614 2135,4799C2226,4895 2309,4957 2428,5019C2610,5112 2791,5151 3340,5215C4053,5299 4302,5358 4613,5517C4937,5683 5194,5916 5363,6196C5574,6548 5601,7006 5430,7364C5252,7737 4852,8060 4352,8234C4160,8301 3973.85,8363.85 3710.85,8390.85C3652.85,8395.85 3486.62,8424.69 3467.62,8427.69L3454.46,8400.2L3439.62,8143Z" style="fill-rule:nonzero;"/>
                </g>
                <g transform="matrix(1.04958,0,0,1.04958,26331.9,35294.5)">
                    <path d="M3056,10840.9L2777,10837.9L2784,10412C2788,10282 2795,10038 2800,9870C2806,9702 2817,9349 2825,9085C2887,7139 2937,6052 2970,5965C2992,5907 3070,5892 3251,5910C3319,5916 3377,5923 3379,5926C3390,5936 3425,6468 3450,6980C3475,7510 3482,7675 3530,8875C3552,9420 3577,10029 3585,10229C3593,10428 3600,10794.9 3600,10813.9L3600,10847.9L3468,10845.9C3395,10843.9 3209,10841.9 3056,10840.9Z" style="fill:rgb(235,219,19);fill-rule:nonzero;"/>
                </g>
                <g transform="matrix(1.04958,0,0,1.04958,26331.9,35294.5)">
                    <path d="M3056,10840.9L2777,10837.9L2784,10412C2788,10282 2795,10038 2800,9870C2806,9702 2817,9349 2825,9085C2878.16,7416.54 2962.43,5818.46 2962.43,5818.46C3115.32,5830.48 3261.72,5848.18 3401.39,5871.76C3401.39,5871.76 3432.78,6627.42 3450,6980C3475,7510 3482,7675 3530,8875C3552,9420 3577,10029 3585,10229C3593,10428 3600,10794.9 3600,10813.9L3600,10847.9L3468,10845.9C3395,10843.9 3209,10841.9 3056,10840.9Z" style="fill:rgb(38,176,229);fill-rule:nonzero;"/>
                </g>
                <g transform="matrix(1.04958,0,0,1.04958,26331.9,35294.5)">
                    <path d="M3046,12785C2815,12747 2650,12677 2529,12563C2424,12464 2364,12335 2372,12219C2381,12095 2445,11998 2575,11910C2700,11826 2734,11773 2764,11615C2773,11566 2783,11308.5 2786,11299.5C2791,11282.5 2813,11281.5 3058,11281.5C3377,11281.5 3538,11293.5 3580,11318.5C3597,11327.5 3610,11340.5 3611,11346.5C3612,11351.5 3613,11583 3614,11606C3617,11658 3669,11753 3765,11880C3902,12060 3948,12174 3936,12300C3918,12500 3711,12706 3463,12771C3360,12798 3167,12805 3046,12785Z" style="fill:rgb(38,176,229);fill-rule:nonzero;"/>
                </g>
                <g transform="matrix(1.04958,0,0,1.04958,26331.9,35294.5)">
                    <path d="M4615,11480C4529,11469 4089,11445 3600,11425C1943,11356 1354,11235 880,10867C568,10625 327,10311 231,10024C131,9725 155,9337 296,8945C378,8720 444,8615 614,8442C900,8149 1296,7941 1805,7815C2090,7745 2155,7737 2491,7732L2871.48,7726.51L2845.88,8448.59L2734,8450C2592,8450 2304,8469 2211,8484C1853,8542 1509,8707 1333,8906C1207,9048 1102,9255 1064,9440C1042,9543 1040,9714 1059,9790C1139,10117 1579,10479 2100,10646C2322,10718 2554,10735 3160,10727C3707,10719 4026,10697 4390,10640C4747,10584 4907,10580 5115,10621C5205,10639 5473,10730 5494,10750C5498,10754 5453,10783 5392,10814C5332,10845 5275,10879 5266,10889C5249,10908 5249,10909 5273,10925C5287,10933 5351,10952 5416,10966C5592,11004 5663,11027 5693,11054C5752,11109 5711,11176 5602,11205C5480,11238 5318,11295 5175,11357C4884,11483 4796,11502 4615,11480ZM5020,11169C5020,11154 4980,11139 4947,11142C4905,11146 4906,11162 4949,11176C4985,11188 5020,11184 5020,11169Z" style="fill-rule:nonzero;"/>
                </g>
                <g transform="matrix(1.04958,0,0,1.04958,26331.9,35294.5)">
                    <path d="M6145,10978C6132,10970 6032,10964 5860,10959C5525,10950 5475,10942 5482,10897C5488,10856 5555,10847 5865,10846C6167,10845 6203,10850 6220,10896C6230,10920 6215,10980 6200,10980C6195,10980 6186,10982 6178,10985C6171,10987 6156,10984 6145,10978Z" style="fill-rule:nonzero;"/>
                </g>
                <g transform="matrix(1.04958,0,0,1.04958,26331.9,35294.5)">
                    <path d="M3264.39,3430.85C3251.39,3425.85 3234.39,3404.85 3226.39,3384.85C3192.39,3303.85 3200.39,2952.85 3237.39,2881.85C3249.39,2857.85 3269.39,2841.85 3310.39,2824.85C3430.39,2771.85 3647,2733 3720,2660C3858,2521 3926,2367 3951,2137C3964,2019 3953,1905 3914,1751C3831,1421 3643,1179 3275,928C2967,718 2691,592 2490,569C2348,553 2254,492 2306,449C2347,416 2664,432 2899,480C3242,550 3713,775 4001,1008C4169,1143 4309,1320 4371,1476C4413,1581 4455,1752 4476,1897C4499,2064 4492,2363 4462,2472C4410,2664 4295,2846 4105,3036C3958,3184 3856,3256 3667,3350C3541,3413 3303.39,3447.85 3264.39,3430.85Z" style="fill-rule:nonzero;"/>
                </g>
                <g transform="matrix(1.04958,0,0,1.04958,26331.9,35294.5)">
                    <path d="M3355,3925C3370,4255 2990.69,4846 3001.69,4640C3027.69,4145 3014,3512 3045,2715C3086,1676 3265,1247 3295,2325C3310,2860 3324,3223 3355,3925Z" style="fill:rgb(38,176,229);fill-rule:nonzero;"/>
                </g>
            </g>
        </g>
        <g transform="matrix(0.0818532,0,0,-0.0818532,-177.999,1491.6)">
            <g transform="matrix(0.871118,0,0,0.871118,-11020.7,-4060.97)">
                <g transform="matrix(7.91541,0,0,-7.91541,11541.7,1279.9)">
                    <g transform="matrix(226.314,0,0,226.314,1215.22,1440)">
                        <path d="M0.382,0.012C0.584,0.012 0.731,-0.132 0.731,-0.333C0.731,-0.534 0.584,-0.678 0.382,-0.678C0.181,-0.678 0.034,-0.534 0.034,-0.333C0.034,-0.132 0.181,0.012 0.382,0.012ZM0.382,-0.114C0.259,-0.114 0.18,-0.209 0.18,-0.333C0.18,-0.458 0.259,-0.552 0.382,-0.552C0.505,-0.552 0.585,-0.458 0.585,-0.333C0.585,-0.209 0.505,-0.114 0.382,-0.114Z" style="fill:rgb(35,31,32);fill-rule:nonzero;"/>
                    </g>
                    <g transform="matrix(226.314,0,0,226.314,1388.35,1440)">
                        <path d="M0.49,-0L0.49,-0.125L0.208,-0.125L0.208,-0.667L0.066,-0.667L0.066,-0L0.49,-0Z" style="fill:rgb(35,31,32);fill-rule:nonzero;"/>
                    </g>
                    <g transform="matrix(226.314,0,0,226.314,1506.71,1440)">
                        <rect x="0.066" y="-0.667" width="0.142" height="0.667" style="fill:rgb(35,31,32);fill-rule:nonzero;"/>
                    </g>
                    <g transform="matrix(226.314,0,0,226.314,1568.72,1440)">
                        <path d="M0.637,-0L0.354,-0.354L0.619,-0.667L0.444,-0.667L0.208,-0.369L0.208,-0.667L0.066,-0.667L0.066,-0L0.208,-0L0.208,-0.205L0.26,-0.267L0.462,-0L0.637,-0Z" style="fill:rgb(35,31,32);fill-rule:nonzero;"/>
                    </g>
                    <g transform="matrix(226.314,0,0,226.314,1712.66,1440)">
                        <path d="M0.49,-0L0.49,-0.125L0.208,-0.125L0.208,-0.667L0.066,-0.667L0.066,-0L0.49,-0Z" style="fill:rgb(35,31,32);fill-rule:nonzero;"/>
                    </g>
                    <g transform="matrix(226.314,0,0,226.314,1831.02,1440)">
                        <rect x="0.066" y="-0.667" width="0.142" height="0.667" style="fill:rgb(35,31,32);fill-rule:nonzero;"/>
                    </g>
                    <g transform="matrix(226.314,0,0,226.314,1893.03,1440)">
                        <path d="M0.663,-0L0.663,-0.667L0.521,-0.667L0.521,-0.248L0.212,-0.667L0.066,-0.667L0.066,-0L0.208,-0L0.208,-0.435L0.526,-0L0.663,-0Z" style="fill:rgb(35,31,32);fill-rule:nonzero;"/>
                    </g>
                    <g transform="matrix(226.314,0,0,226.314,2058.01,1440)">
                        <rect x="0.066" y="-0.667" width="0.142" height="0.667" style="fill:rgb(35,31,32);fill-rule:nonzero;"/>
                    </g>
                    <g transform="matrix(226.314,0,0,226.314,2120.02,1440)">
                        <path d="M0.637,-0L0.354,-0.354L0.619,-0.667L0.444,-0.667L0.208,-0.369L0.208,-0.667L0.066,-0.667L0.066,-0L0.208,-0L0.208,-0.205L0.26,-0.267L0.462,-0L0.637,-0Z" style="fill:rgb(35,31,32);fill-rule:nonzero;"/>
                    </g>
                    <g transform="matrix(226.314,0,0,226.314,2263.96,1440)">
                        <path d="M0.688,-0L0.431,-0.667L0.253,-0.667L-0.005,-0L0.157,-0L0.199,-0.113L0.485,-0.113L0.526,-0L0.688,-0ZM0.446,-0.238L0.238,-0.238L0.342,-0.525L0.446,-0.238Z" style="fill:rgb(35,31,32);fill-rule:nonzero;"/>
                    </g>
                </g>
                <g transform="matrix(6.7231,0,0,-6.7231,12436.7,-2221.95)">
                    <g transform="matrix(1.81716,0,0,1.81716,-1526.4,-2386.8)">
                        <path d="M1472.26,1862.02L1518,1862.02C1539.26,1862.02 1550.84,1876.38 1550.84,1893.54C1550.84,1910.55 1539.12,1925.06 1518,1925.06L1493.06,1925.06L1493.13,2007.27L1493.13,2073.53C1493.13,2096.9 1478.65,2107.68 1458.39,2107.68C1448.48,2107.68 1439.02,2105.02 1431.91,2098.08L1441.09,2081.96C1444.93,2085.66 1449.96,2089.06 1456.77,2089.06C1466.08,2089.06 1472.15,2082.85 1472.15,2073.24L1472.15,2007.27L1472.26,1862.02ZM1515.31,1906.75C1523.48,1906.71 1529.59,1901.58 1529.59,1893.54C1529.59,1885.32 1523.43,1880.33 1515.22,1880.33L1493.06,1880.33L1493.06,1906.75L1515.22,1906.75L1515.31,1906.75Z" style="fill:rgb(35,31,32);fill-rule:nonzero;"/>
                    </g>
                    <g transform="matrix(268.789,0,0,268.789,1204.63,1440)">
                        <rect x="0.066" y="-0.667" width="0.142" height="0.667" style="fill:rgb(35,31,32);fill-rule:nonzero;"/>
                    </g>
                    <g transform="matrix(268.789,0,0,268.789,1278.28,1440)">
                        <path d="M0.389,0.012C0.536,0.012 0.62,-0.069 0.668,-0.152L0.546,-0.211C0.518,-0.156 0.458,-0.114 0.389,-0.114C0.268,-0.114 0.18,-0.207 0.18,-0.333C0.18,-0.459 0.268,-0.552 0.389,-0.552C0.458,-0.552 0.518,-0.509 0.546,-0.455L0.668,-0.515C0.621,-0.598 0.536,-0.678 0.389,-0.678C0.189,-0.678 0.034,-0.538 0.034,-0.333C0.034,-0.128 0.189,0.012 0.389,0.012Z" style="fill:rgb(35,31,32);fill-rule:nonzero;"/>
                    </g>
                    <g transform="matrix(268.789,0,0,268.789,1278.28,1440)">
                        <path d="M0.447,-0.723L0.538,-0.867L0.46,-0.867L0.39,-0.777L0.316,-0.867L0.238,-0.867L0.333,-0.723L0.447,-0.723Z" style="fill:rgb(20,177,235);fill-rule:nonzero;"/>
                    </g>
                    <g transform="matrix(268.789,0,0,268.789,1462.94,1440)">
                        <path d="M0.326,-0.867L0.209,-0.867L0.075,-0.723L0.164,-0.723L0.326,-0.867Z" style="fill:rgb(20,177,235);fill-rule:nonzero;"/>
                    </g>
                    <g transform="matrix(268.789,0,0,268.789,1462.94,1440)">
                        <rect x="0.066" y="-0.667" width="0.142" height="0.667" style="fill:rgb(35,31,32);fill-rule:nonzero;"/>
                    </g>
                    <g transform="matrix(268.789,0,0,268.789,1536.59,1440)">
                        <path d="M0.663,-0L0.663,-0.667L0.521,-0.667L0.521,-0.248L0.212,-0.667L0.066,-0.667L0.066,-0L0.208,-0L0.208,-0.435L0.526,-0L0.663,-0Z" style="fill:rgb(35,31,32);fill-rule:nonzero;"/>
                    </g>
                </g>
            </g>
        </g>
    </g>
</svg>
